<?xml version="1.0" standalone="no"?>
<!DOCTYPE svg PUBLIC "-//W3C//DTD SVG 20010904//EN"
 "http://www.w3.org/TR/2001/REC-SVG-20010904/DTD/svg10.dtd">
<svg version="1.0" xmlns="http://www.w3.org/2000/svg"
 width="512.000000pt" height="512.000000pt" viewBox="0 0 512.000000 512.000000"
 preserveAspectRatio="xMidYMid meet">

<g transform="translate(0.000000,512.000000) scale(0.100000,-0.100000)"
fill="#000000" stroke="none">
<path d="M290 4670 c-119 -43 -215 -135 -263 -252 -21 -52 -22 -66 -25 -531
l-3 -477 213 2 213 3 3 428 2 427 425 0 425 0 0 210 0 210 -467 0 c-440 -1
-471 -2 -523 -20z"/>
<path d="M3840 4480 l0 -210 425 0 425 0 2 -427 3 -428 213 -3 213 -2 -3 477
c-3 465 -4 479 -25 531 -32 80 -97 158 -166 203 -107 69 -106 69 -624 69
l-463 0 0 -210z"/>
<path d="M850 2560 l0 -1280 215 0 215 0 0 1280 0 1280 -215 0 -215 0 0 -1280z"/>
<path d="M1490 2560 l0 -1280 110 0 110 0 0 1280 0 1280 -110 0 -110 0 0
-1280z"/>
<path d="M1920 2560 l0 -1280 320 0 320 0 0 1280 0 1280 -320 0 -320 0 0
-1280z"/>
<path d="M2770 2560 l0 -1280 110 0 110 0 0 1280 0 1280 -110 0 -110 0 0
-1280z"/>
<path d="M3410 2560 l0 -1280 215 0 215 0 0 1280 0 1280 -215 0 -215 0 0
-1280z"/>
<path d="M4050 2560 l0 -1280 110 0 110 0 0 1280 0 1280 -110 0 -110 0 0
-1280z"/>
<path d="M2 1233 c3 -465 4 -479 25 -531 48 -118 145 -210 266 -252 53 -19 82
-20 522 -20 l465 0 0 210 0 210 -425 0 -425 0 -2 428 -3 427 -213 3 -213 2 3
-477z"/>
<path d="M4697 1703 c-4 -3 -7 -197 -7 -430 l0 -423 -425 0 -425 0 0 -210 0
-210 463 0 c518 0 517 0 624 69 69 45 134 123 166 203 21 52 22 66 25 531 l3
477 -209 0 c-115 0 -212 -3 -215 -7z"/>
</g>
</svg>
