<?xml version="1.0" standalone="no"?>
<!DOCTYPE svg PUBLIC "-//W3C//DTD SVG 20010904//EN"
 "http://www.w3.org/TR/2001/REC-SVG-20010904/DTD/svg10.dtd">
<svg version="1.0" xmlns="http://www.w3.org/2000/svg"
 width="512.000000pt" height="512.000000pt" viewBox="0 0 512.000000 512.000000"
 preserveAspectRatio="xMidYMid meet">

<g transform="translate(0.000000,512.000000) scale(0.100000,-0.100000)"
fill="#000000" stroke="none">
<path d="M4490 4485 c11 -17 31 -62 45 -100 l25 -70 -1 -492 c0 -412 -3 -493
-14 -493 -8 0 -17 -5 -20 -10 -4 -6 -3 -10 2 -9 19 3 33 -2 33 -12 0 -6 -9 -9
-20 -6 -17 4 -20 2 -15 -16 5 -17 4 -19 -4 -7 -6 8 -11 23 -11 33 0 22 -15 22
-40 -3 -11 -11 -22 -15 -25 -10 -4 6 -11 10 -17 10 -7 0 -5 -7 4 -17 8 -10 18
-25 22 -33 4 -8 0 -6 -8 4 -9 11 -16 16 -16 10 0 -5 -7 -1 -14 9 -11 14 -19
15 -39 8 -14 -5 -28 -7 -31 -4 -3 3 -8 -2 -12 -11 -5 -12 -10 -14 -19 -6 -9 7
-21 7 -39 0 -18 -6 -26 -6 -26 1 0 6 -5 7 -10 4 -6 -4 -1 -14 11 -24 15 -12
19 -20 11 -25 -7 -4 -12 -2 -12 4 0 6 -4 9 -9 5 -5 -3 -12 4 -16 15 -3 11 -12
20 -18 20 -7 0 -6 4 3 10 8 5 11 10 5 10 -14 0 -63 -39 -49 -40 5 0 15 5 20
10 8 8 15 6 24 -5 8 -10 9 -15 1 -16 -6 -1 -16 -2 -23 -3 -18 -2 -21 -25 -4
-32 9 -3 16 -11 16 -17 0 -5 -8 -3 -18 6 -22 20 -47 23 -36 5 6 -10 4 -10 -7
-2 -8 6 -30 16 -49 22 -33 11 -34 11 -15 -4 19 -16 19 -16 -5 -8 -14 4 -32 6
-40 5 -8 0 -23 -1 -33 -2 -9 0 -15 -4 -12 -10 4 -5 2 -9 -3 -9 -5 0 -10 -30
-10 -66 0 -58 -3 -69 -28 -95 -23 -24 -36 -29 -73 -29 -58 0 -96 30 -106 83
-6 33 -9 36 -28 26 -18 -10 -19 -9 -14 10 3 11 1 21 -4 21 -5 0 -9 7 -9 15 0
8 -4 15 -8 15 -5 0 -9 -7 -9 -15 0 -8 4 -15 9 -15 4 0 8 -5 8 -11 0 -6 -14 -9
-35 -6 -19 3 -35 1 -35 -4 0 -5 -10 -10 -22 -10 -17 -1 -18 -3 -6 -6 9 -2 25
0 36 6 11 6 24 6 32 1 12 -8 11 -13 -7 -30 -12 -11 -28 -19 -35 -18 -7 2 -12
-3 -10 -11 2 -12 -1 -11 -20 1 -13 9 -22 23 -20 32 3 18 -13 22 -24 4 -5 -7
-2 -8 7 -3 11 6 11 5 2 -5 -6 -7 -22 -14 -35 -15 -37 -4 -38 -4 -38 -16 0 -5
6 -7 13 -3 6 4 4 -2 -6 -13 -12 -13 -25 -19 -39 -15 -11 3 -24 -1 -29 -9 -6
-10 -9 -10 -9 -1 0 22 -46 14 -58 -10 -6 -13 -11 -17 -11 -10 -1 7 -5 10 -11
7 -5 -3 -10 -2 -10 4 0 5 6 11 13 14 6 3 2 4 -11 4 -14 -1 -21 -6 -18 -14 3
-7 0 -13 -6 -13 -7 0 -6 -6 3 -16 8 -10 26 -15 53 -13 78 4 173 -25 212 -65
38 -38 57 -87 57 -150 0 -86 -25 -142 -79 -176 l-43 -27 24 -23 c14 -13 33
-42 44 -64 74 -160 120 -270 115 -277 -3 -5 -48 -9 -101 -9 -86 0 -95 2 -100
20 -5 19 -14 20 -148 20 -130 0 -143 -2 -141 -17 1 -16 -9 -18 -89 -18 -80 0
-90 2 -89 18 2 15 -10 17 -108 17 -92 0 -116 -3 -156 -22 -36 -18 -70 -23
-148 -26 -90 -3 -108 -1 -166 22 -62 25 -73 26 -257 26 -182 0 -195 -1 -251
-25 -80 -34 -221 -35 -290 -4 -25 11 -63 24 -85 28 -33 5 -41 11 -43 31 -2 14
-15 40 -28 57 -31 41 -74 154 -74 194 0 21 -4 28 -12 23 -10 -6 -10 -4 0 7 17
19 15 29 -7 29 -11 0 -22 6 -24 13 -4 9 -6 9 -6 0 -1 -7 -8 -10 -18 -6 -12 5
-15 2 -10 -9 4 -12 0 -15 -16 -10 -12 3 -19 2 -15 -3 8 -9 -14 -35 -24 -28 -4
2 -5 -4 -1 -13 4 -12 2 -15 -8 -12 -8 2 -15 15 -17 27 -2 12 -9 20 -15 18 -7
-3 -11 -9 -10 -15 2 -6 -7 -16 -20 -22 -20 -10 -21 -10 -4 3 23 19 10 27 -32
22 -23 -3 -38 1 -50 13 -9 10 -13 13 -9 7 9 -15 -7 -39 -21 -31 -6 4 -12 2
-12 -3 -1 -6 -2 -17 -3 -23 -1 -7 3 -17 9 -21 5 -4 -3 -5 -19 -1 -19 5 -31 2
-37 -7 -6 -11 -14 -9 -38 9 -17 12 -31 18 -31 12 0 -5 -5 -10 -11 -10 -5 0 -7
5 -3 12 4 7 3 8 -4 4 -20 -12 5 -46 29 -41 12 3 19 2 15 -2 -3 -3 -1 -12 5
-19 8 -9 -1 -9 -37 2 -52 16 -64 12 -65 -19 0 -12 -3 -16 -6 -9 -2 6 -9 10
-14 6 -5 -3 -9 3 -10 13 0 10 -2 26 -4 35 -2 12 2 15 13 11 22 -8 13 1 -15 16
-19 9 -22 9 -17 -3 3 -8 1 -23 -5 -33 -6 -10 -11 -13 -11 -7 0 21 -38 23 -43
2 -5 -16 -3 -17 9 -7 24 19 26 4 3 -22 -11 -13 -18 -18 -14 -11 3 6 0 15 -9
18 -8 3 -12 12 -10 19 3 7 0 16 -7 21 -8 4 -10 3 -5 -4 4 -8 0 -12 -11 -12
-15 0 -16 -2 -3 -10 8 -5 11 -10 6 -10 -6 0 -2 -6 9 -13 17 -13 17 -14 -6 -13
-13 1 -24 -4 -24 -11 0 -6 -4 -15 -9 -20 -5 -4 -6 -3 -3 3 4 6 -2 19 -13 29
-19 17 -20 17 -20 0 0 -10 -3 -15 -6 -12 -4 3 -14 2 -23 -3 -10 -5 -23 -5 -32
1 -10 6 -7 9 12 9 16 0 30 7 33 16 5 14 4 15 -9 4 -8 -7 -22 -10 -30 -6 -8 3
-15 1 -15 -4 0 -5 -8 -11 -18 -14 -16 -5 -18 -21 -21 -138 -2 -126 -7 -147
-34 -148 -5 0 -5 6 0 13 4 6 8 18 9 25 2 10 -1 11 -12 1 -12 -10 -14 -108 -11
-673 2 -613 4 -664 21 -709 25 -66 103 -149 168 -178 l53 -24 1780 0 c1734 0
1781 1 1830 19 65 26 147 103 176 169 l24 52 0 1775 c0 1998 7 1833 -76 1922
-26 28 -33 32 -19 13z m8 -1187 c1 -7 3 -30 6 -51 2 -20 1 -35 -4 -32 -5 3 -7
12 -3 21 3 8 -2 21 -13 28 -15 12 -16 16 -5 30 16 19 17 19 19 4z m-102 -57
c0 -15 -3 -17 -13 -9 -7 6 -10 14 -7 19 9 15 20 10 20 -10z m-76 -9 c0 -4 -9
-8 -20 -8 -11 0 -20 4 -20 8 0 4 9 8 20 8 11 0 20 -4 20 -8z m-255 -92 c3 -5
1 -10 -4 -10 -6 0 -11 5 -11 10 0 6 2 10 4 10 3 0 8 -4 11 -10z m-475 -110 c0
-5 -5 -10 -11 -10 -5 0 -7 5 -4 10 3 6 8 10 11 10 2 0 4 -4 4 -10z m-2207
-540 c3 -11 1 -18 -4 -14 -5 3 -9 12 -9 20 0 20 7 17 13 -6z m-194 -11 c-16
-10 -23 -4 -14 10 3 6 11 8 17 5 6 -4 5 -9 -3 -15z m-25 -17 c3 -5 -1 -9 -9
-9 -8 0 -15 4 -15 9 0 4 4 8 9 8 6 0 12 -4 15 -8z m-299 -76 c0 -15 -4 -21 -9
-16 -5 5 -6 16 -3 24 9 22 12 20 12 -8z m180 14 c3 -5 1 -10 -4 -10 -6 0 -11
5 -11 10 0 6 2 10 4 10 3 0 8 -4 11 -10z m-210 -30 c3 -5 4 -10 1 -10 -2 0
-12 -3 -20 -6 -12 -5 -15 -2 -10 10 7 18 20 21 29 6z m-211 -16 c9 -3 13 -10
10 -15 -3 -5 -10 -7 -15 -4 -5 4 -9 -1 -9 -9 0 -9 -4 -16 -9 -16 -4 0 -6 11
-3 25 5 28 4 27 26 19z m696 -251 c16 -9 33 -27 39 -40 7 -15 11 -116 11 -275
0 -274 6 -312 53 -359 62 -62 66 -63 375 -69 l284 -5 24 -28 c35 -41 33 -97
-5 -139 l-29 -33 -304 0 -303 0 -68 32 c-117 55 -202 160 -228 282 -6 28 -9
158 -7 318 l3 271 25 24 c42 42 84 49 130 21z m2622 -20 l29 -28 -3 -310 -3
-310 -27 -57 c-36 -77 -112 -152 -196 -191 l-67 -32 -303 0 -304 0 -29 33
c-37 42 -39 94 -5 137 l24 30 284 5 283 5 48 28 c83 49 87 63 88 369 1 145 4
274 8 288 4 14 22 35 41 48 44 30 91 24 132 -15z m-442 -73 l0 -80 -982 2
-983 3 -3 78 -3 77 986 0 985 0 0 -80z m-2920 60 c0 -5 -5 -10 -11 -10 -5 0
-7 5 -4 10 3 6 8 10 11 10 2 0 4 -4 4 -10z m2140 -330 l0 -80 -592 2 -593 3
-3 64 c-2 35 -1 70 2 77 4 12 108 14 596 14 l590 0 0 -80z"/>
<path d="M4525 3368 c5 -13 0 -21 -16 -27 -16 -6 -18 -10 -8 -10 25 -1 45 27
30 42 -10 9 -11 8 -6 -5z"/>
<path d="M4416 3345 c-17 -13 -18 -17 -6 -28 10 -10 11 -9 5 2 -6 10 -4 13 6
9 10 -4 15 1 15 13 0 11 0 19 -1 19 0 0 -9 -7 -19 -15z"/>
<path d="M4295 3309 c4 -5 11 -7 16 -4 5 4 9 -1 9 -10 0 -13 2 -14 14 -3 17
16 17 16 -17 22 -16 3 -25 1 -22 -5z"/>
<path d="M4131 3272 c0 -7 -5 -10 -11 -7 -5 3 -10 1 -10 -5 0 -7 -7 -10 -15
-6 -8 3 -15 1 -15 -5 0 -6 -4 -7 -10 -4 -5 3 -10 1 -10 -6 0 -7 10 -9 26 -6
18 3 24 1 20 -9 -3 -8 -1 -14 4 -14 6 0 10 9 10 21 0 19 1 19 16 5 18 -19 31
-21 16 -3 -5 6 -12 21 -15 32 -2 11 -5 14 -6 7z"/>
<path d="M4033 3233 c-17 -6 -17 -20 0 -20 8 0 14 6 14 14 0 7 -1 13 -1 12 -1
0 -7 -3 -13 -6z"/>
<path d="M3640 3145 c0 -7 30 -13 34 -7 3 4 -4 9 -15 9 -10 1 -19 0 -19 -2z"/>
<path d="M3576 3117 c3 -10 9 -15 12 -12 3 3 0 11 -7 18 -10 9 -11 8 -5 -6z"/>
<path d="M3503 3078 c0 -7 11 -13 24 -13 28 0 25 19 -4 23 -11 2 -20 -3 -20
-10z"/>
<path d="M3071 3002 c-1 -7 7 -21 17 -32 15 -17 31 -19 126 -18 91 1 106 3 92
13 -11 9 -13 15 -6 20 19 12 -1 25 -34 22 -21 -1 -32 -6 -29 -14 3 -6 11 -9
19 -6 10 4 12 0 8 -11 -7 -18 -20 -21 -28 -7 -3 4 -18 6 -33 4 -26 -5 -27 -4
-9 9 15 12 16 17 6 23 -9 6 -11 4 -5 -5 6 -10 4 -12 -11 -6 -33 13 -39 12 -37
-9 1 -15 -4 -20 -23 -20 -16 0 -24 6 -24 18 0 10 -4 16 -9 13 -5 -4 -12 0 -14
6 -4 10 -6 10 -6 0z"/>
<path d="M3117 3003 c-10 -9 -9 -23 1 -23 5 0 9 7 9 15 0 17 -1 18 -10 8z"/>
<path d="M2975 2970 c-3 -5 -1 -10 4 -10 6 0 11 5 11 10 0 6 -2 10 -4 10 -3 0
-8 -4 -11 -10z"/>
<path d="M2916 2962 c-2 -4 7 -13 21 -19 25 -12 25 -12 8 7 -20 22 -22 23 -29
12z"/>
<path d="M2841 2941 c-8 -5 -9 -11 -3 -15 5 -3 12 1 16 9 6 17 6 18 -13 6z"/>
<path d="M2985 2921 c-11 -4 -30 -6 -42 -5 -19 1 -21 -2 -12 -18 8 -15 8 -23
-1 -32 -8 -8 -10 -7 -5 7 5 12 2 17 -12 17 -16 0 -18 -6 -15 -37 3 -21 10 -47
17 -58 7 -11 15 -34 18 -52 6 -31 4 -33 -31 -42 -20 -6 -60 -13 -89 -17 l-52
-6 -15 36 -15 36 -131 0 c-85 0 -129 -4 -125 -10 3 -5 2 -10 -4 -10 -12 0 -41
-52 -41 -75 0 -13 36 -15 305 -15 l305 0 0 135 c0 118 -2 135 -17 143 -10 6
-27 7 -38 3z"/>
<path d="M3210 2711 l0 -91 93 0 c71 0 98 4 117 17 35 24 40 33 40 79 0 66
-22 78 -146 82 l-104 4 0 -91z"/>
<path d="M2155 2740 c-7 -11 5 -40 16 -40 5 0 6 -13 3 -30 -6 -29 -5 -30 30
-30 30 0 36 4 37 23 2 35 3 41 17 65 13 22 12 23 -15 20 -16 -2 -28 -9 -28
-17 0 -8 -11 -15 -24 -16 -21 -2 -22 0 -7 10 9 7 16 14 16 16 0 9 -40 8 -45
-1z"/>
<path d="M1890 2721 c0 -5 -10 -7 -22 -4 -18 4 -17 2 6 -11 16 -9 31 -14 34
-11 3 3 0 5 -6 5 -6 0 -9 7 -6 15 4 8 3 15 0 15 -3 0 -6 -4 -6 -9z"/>
<path d="M1790 2701 c0 -6 4 -13 10 -16 6 -3 7 1 4 9 -7 18 -14 21 -14 7z"/>
<path d="M1925 2694 c-40 -21 -41 -22 -19 -39 24 -18 54 -19 54 -2 0 8 4 7 10
-3 8 -13 10 -12 10 3 0 9 -4 17 -9 17 -5 0 -7 9 -4 20 6 24 -2 25 -42 4z m29
-19 c-4 -8 -13 -15 -21 -15 -13 0 -13 3 -3 15 7 8 16 15 21 15 5 0 6 -7 3 -15z"/>
<path d="M1635 2660 c3 -5 8 -10 11 -10 2 0 4 5 4 10 0 6 -5 10 -11 10 -5 0
-7 -4 -4 -10z"/>
<path d="M1780 2655 c0 -12 9 -15 35 -13 35 2 44 11 25 23 -5 3 -10 0 -10 -7
0 -10 -2 -10 -9 1 -7 11 -9 11 -14 0 -4 -10 -6 -10 -6 -1 -1 18 -21 15 -21 -3z"/>
<path d="M1086 2523 c-6 -14 -5 -15 5 -6 7 7 10 15 7 18 -3 3 -9 -2 -12 -12z"/>
<path d="M1286 2525 c-3 -8 -1 -15 4 -15 6 0 10 7 10 15 0 8 -2 15 -4 15 -2 0
-6 -7 -10 -15z"/>
<path d="M1054 2524 c2 -3 1 -18 -4 -34 -7 -25 -5 -28 14 -26 14 1 23 8 24 21
1 16 -1 17 -8 5 -7 -11 -10 -11 -11 -2 -3 27 -4 31 -11 36 -5 3 -6 3 -4 0z"/>
<path d="M990 2516 c0 -2 7 -9 15 -16 13 -11 14 -10 9 4 -5 14 -24 23 -24 12z"/>
<path d="M1005 2470 c-3 -5 1 -10 10 -10 9 0 13 5 10 10 -3 6 -8 10 -10 10 -2
0 -7 -4 -10 -10z"/>
<path d="M1625 2448 c4 -18 13 -43 21 -55 14 -22 20 -23 153 -23 147 0 160 4
173 55 3 11 9 28 13 38 7 16 -6 17 -180 17 l-187 0 7 -32z"/>
<path d="M2170 2460 c0 -11 -7 -36 -14 -55 l-15 -35 64 0 64 0 -15 35 c-7 19
-14 44 -14 55 0 16 -6 20 -35 20 -29 0 -35 -4 -35 -20z"/>
<path d="M2430 2458 c0 -13 9 -38 20 -55 l20 -33 135 0 136 0 16 38 c8 20 16
38 18 40 2 2 32 -2 67 -8 115 -21 109 -18 102 -45 -6 -24 -4 -25 45 -25 l51 0
0 55 0 55 -305 0 -305 0 0 -22z"/>
<path d="M908 2447 c2 -10 7 -15 10 -12 3 2 11 0 19 -6 9 -9 13 -8 13 0 0 6
-5 11 -11 11 -6 0 -9 6 -6 13 3 7 -3 13 -13 13 -12 0 -16 -6 -12 -19z"/>
<path d="M3210 2421 l0 -51 111 0 c110 0 110 0 104 23 -4 12 -18 33 -31 47
-21 22 -35 25 -104 28 l-80 4 0 -51z"/>
<path d="M721 2391 c-8 -5 -9 -11 -3 -15 5 -3 12 1 16 9 6 17 6 18 -13 6z"/>
</g>
</svg>
