<?xml version="1.0" standalone="no"?>
<!DOCTYPE svg PUBLIC "-//W3C//DTD SVG 20010904//EN"
 "http://www.w3.org/TR/2001/REC-SVG-20010904/DTD/svg10.dtd">
<svg version="1.0" xmlns="http://www.w3.org/2000/svg"
 width="1242.000000pt" height="1231.000000pt" viewBox="0 0 1242.000000 1231.000000"
 preserveAspectRatio="xMidYMid meet">

<g transform="translate(0.000000,1231.000000) scale(0.100000,-0.100000)"
fill="#000000" stroke="none">
<path d="M1445 11173 c-11 -3 -24 -10 -30 -17 -5 -7 -27 -21 -47 -31 -30 -13
-38 -23 -38 -43 0 -14 -10 -36 -22 -50 l-23 -24 -2 -1856 -3 -1857 43 -25 c39
-23 53 -25 183 -27 132 -2 143 0 160 19 18 19 19 85 22 1842 2 1001 0 1862 -3
1912 l-7 91 -34 12 c-19 7 -34 18 -34 24 0 22 -113 42 -165 30z"/>
<path d="M5665 11167 c-64 -38 -116 -82 -130 -109 -13 -28 -15 -233 -15 -1900
0 -1661 2 -1871 15 -1892 15 -23 18 -23 190 -24 96 0 175 4 175 8 0 5 9 12 20
15 20 6 20 15 20 1890 0 1245 -3 1886 -10 1890 -5 3 -10 15 -10 25 0 11 -10
25 -22 31 -13 7 -27 18 -31 26 -24 41 -157 67 -202 40z"/>
<path d="M10963 11167 c-24 -6 -43 -16 -43 -23 0 -7 -15 -17 -34 -24 -19 -6
-38 -20 -42 -33 -14 -35 -17 -3767 -3 -3799 6 -15 18 -29 27 -33 10 -4 80 -9
157 -12 l140 -5 38 32 37 32 -2 1858 c-3 1753 -4 1859 -20 1877 -10 11 -18 31
-18 45 0 20 -8 30 -35 42 -19 9 -35 21 -35 26 0 21 -109 32 -167 17z"/>
<path d="M3501 10752 c-29 -6 -36 -13 -43 -39 -6 -23 -15 -33 -28 -33 -15 0
-20 -10 -25 -52 -3 -29 -5 -795 -3 -1703 l3 -1649 50 -19 c43 -16 68 -18 188
-13 100 5 143 10 153 20 12 12 14 265 14 1713 l0 1699 -36 39 -36 40 -101 1
c-56 2 -117 -1 -136 -4z"/>
<path d="M6687 10753 c-17 -3 -32 -14 -38 -27 -6 -12 -20 -26 -32 -31 l-22
-10 -3 -1704 c-2 -1539 -1 -1706 14 -1722 14 -15 36 -17 182 -16 127 0 172 4
190 15 l22 14 0 1699 0 1698 -30 23 c-16 12 -30 29 -30 38 0 13 -13 19 -52 24
-56 6 -154 6 -201 -1z"/>
<path d="M2432 10537 c-25 -8 -35 -17 -39 -39 -3 -16 -15 -35 -27 -44 l-21
-14 -3 -1571 c-2 -1118 1 -1575 9 -1585 6 -7 24 -16 40 -19 16 -4 29 -10 29
-15 0 -5 67 -8 150 -7 l150 1 15 33 c14 29 15 207 13 1615 -2 1268 -6 1587
-16 1606 -21 37 -74 52 -176 51 -50 -1 -106 -6 -124 -12z"/>
<path d="M9915 10345 c-22 -7 -58 -18 -81 -25 -32 -9 -43 -19 -52 -44 -9 -24
-12 -413 -12 -1513 l0 -1482 25 -19 c21 -17 41 -19 166 -19 124 0 147 3 176
19 18 11 35 30 38 42 3 11 4 674 3 1472 -3 1321 -4 1454 -19 1470 -9 11 -21
33 -26 49 -7 21 -17 31 -34 33 -13 1 -40 7 -59 12 -65 17 -85 18 -125 5z"/>
<path d="M4643 10163 c-19 -2 -33 -10 -33 -18 0 -13 -21 -25 -47 -25 -8 0 -34
-20 -59 -44 l-44 -44 0 -1381 0 -1381 28 -6 c15 -4 31 -9 37 -12 5 -4 77 -7
159 -9 127 -2 153 0 168 14 17 15 18 82 18 1399 0 825 -4 1393 -9 1407 -10 27
-68 67 -96 67 -10 0 -23 7 -29 14 -13 18 -49 25 -93 19z"/>
<path d="M8858 10150 c-15 -11 -30 -20 -34 -20 -4 0 -29 -10 -55 -21 l-48 -22
-6 -61 c-3 -34 -5 -667 -3 -1408 3 -1334 3 -1347 23 -1362 16 -12 51 -15 158
-16 118 0 145 3 183 20 l44 20 0 1375 0 1375 -25 22 c-14 12 -25 29 -25 39 0
18 -19 29 -50 29 -10 0 -25 8 -32 19 -8 11 -32 21 -59 25 -37 5 -50 3 -71 -14z"/>
<path d="M7765 9741 c-11 -5 -27 -20 -34 -35 -9 -17 -23 -26 -38 -26 -16 0
-27 -8 -33 -26 -6 -16 -10 -462 -10 -1202 0 -1167 0 -1178 20 -1195 29 -25
295 -25 343 -1 18 9 35 22 39 28 4 6 8 532 8 1168 0 1015 -2 1158 -15 1172 -8
8 -15 18 -15 23 0 14 -48 61 -69 68 -10 3 -22 12 -25 20 -4 11 -23 15 -78 14
-40 0 -82 -4 -93 -8z"/>
<path d="M1307 5178 l-27 -42 0 -1859 0 -1859 25 -30 c14 -16 25 -35 25 -43 0
-7 15 -29 34 -49 l33 -37 109 3 c101 3 110 5 119 25 5 12 19 26 31 31 15 8 23
23 28 58 8 64 7 3749 -2 3799 l-7 40 -170 3 -170 2 -28 -42z"/>
<path d="M2383 5207 c-12 -6 -27 -23 -33 -37 -7 -17 -9 -526 -8 -1602 l3
-1578 23 -15 c12 -9 22 -25 22 -35 0 -35 12 -50 40 -50 15 0 39 -9 52 -20 34
-27 100 -36 119 -18 8 8 37 22 64 32 28 9 57 21 65 26 13 8 15 199 18 1602 1
876 -1 1618 -5 1648 l-8 55 -165 1 c-104 1 -173 -2 -187 -9z"/>
<path d="M3420 5210 c-13 -8 -15 -211 -18 -1707 -1 -934 0 -1708 3 -1720 3
-13 10 -23 16 -23 17 0 39 -27 39 -49 0 -25 18 -35 98 -51 102 -21 206 10 238
71 12 24 14 265 14 1747 0 1323 -3 1721 -12 1730 -15 15 -355 17 -378 2z"/>
<path d="M4470 5201 c-7 -13 -10 -471 -10 -1410 l0 -1391 30 -32 c17 -17 30
-34 30 -38 0 -4 16 -15 35 -26 19 -10 35 -24 35 -31 0 -18 42 -26 104 -21 40
3 60 11 82 32 16 15 39 32 52 37 12 5 27 20 32 34 11 29 15 2821 4 2849 -5 14
-32 16 -195 16 -176 0 -189 -1 -199 -19z"/>
<path d="M5530 5201 c-16 -31 -14 -3808 3 -3841 7 -14 23 -26 35 -28 12 -2 22
-11 22 -20 0 -9 7 -25 14 -34 11 -15 31 -18 134 -18 117 0 121 1 127 23 4 12
21 34 38 49 l32 27 3 1903 c2 1402 -1 1910 -9 1931 l-11 27 -189 0 c-176 0
-189 -1 -199 -19z"/>
<path d="M6597 5213 c-4 -3 -7 -784 -7 -1735 l0 -1728 39 -37 c56 -52 171 -79
233 -54 13 5 35 12 49 15 14 3 32 18 40 33 8 16 22 34 32 41 16 12 17 106 17
1720 0 939 -3 1717 -6 1730 -6 22 -8 22 -198 22 -106 0 -196 -3 -199 -7z"/>
<path d="M7656 5204 c-11 -29 -7 -2424 4 -2445 6 -11 21 -19 35 -19 18 0 25
-5 25 -19 0 -31 27 -44 106 -49 123 -8 152 9 216 126 17 31 18 94 16 1218 -3
1040 -5 1186 -18 1194 -8 5 -97 10 -196 10 -157 0 -183 -2 -188 -16z"/>
<path d="M8718 5218 c-1 -2 -5 -396 -8 -875 l-5 -873 -26 -24 c-20 -18 -28
-38 -33 -80 -6 -47 -11 -57 -30 -62 -26 -6 -46 -41 -46 -82 0 -33 -8 -44 -41
-59 -23 -10 -27 -19 -33 -74 -3 -34 -12 -70 -19 -78 -25 -33 -37 -62 -37 -93
0 -54 -26 -148 -48 -171 -17 -19 -21 -44 -28 -192 -10 -192 -9 -352 3 -569 8
-129 12 -150 28 -162 25 -18 45 -85 45 -150 0 -41 5 -56 24 -76 17 -17 27 -41
32 -79 7 -56 26 -95 56 -117 10 -7 18 -24 18 -38 0 -13 14 -38 31 -57 34 -35
49 -66 49 -102 0 -14 8 -29 19 -35 22 -11 51 -64 51 -90 0 -10 15 -25 35 -34
25 -12 35 -23 35 -40 0 -17 9 -27 30 -36 17 -7 37 -25 45 -41 8 -15 24 -30 34
-34 12 -3 21 -17 23 -33 2 -20 11 -29 35 -35 24 -7 34 -17 38 -38 5 -21 13
-29 28 -29 26 0 38 -8 53 -35 6 -11 24 -26 42 -34 17 -8 33 -24 36 -38 4 -14
14 -23 26 -23 11 0 20 -3 20 -8 0 -4 14 -13 31 -21 17 -7 33 -21 37 -30 7 -21
22 -31 49 -31 12 0 35 -14 51 -30 21 -21 40 -30 62 -30 37 0 69 -15 90 -41 16
-20 104 -49 148 -49 15 0 26 -7 29 -19 6 -23 44 -41 88 -41 44 0 135 -21 135
-32 0 -29 130 -42 520 -50 19 0 109 3 200 6 167 7 236 18 256 43 11 13 68 26
167 38 38 5 50 11 59 31 9 18 19 24 44 24 18 0 36 4 39 10 3 5 18 10 33 10 16
0 32 8 39 19 16 25 69 51 105 51 17 0 39 10 54 25 23 23 39 30 89 37 13 2 22
13 25 33 4 25 10 31 37 33 23 2 34 10 43 32 8 19 27 35 60 49 26 11 55 32 64
46 10 15 26 25 40 25 18 0 27 8 34 29 6 16 23 35 39 43 19 9 29 22 31 41 3 21
10 29 32 34 20 4 32 14 39 35 6 16 20 32 31 35 12 3 29 24 40 49 11 24 31 54
43 67 13 12 27 35 30 49 4 15 19 33 35 40 23 11 28 22 36 72 8 51 12 60 37 69
23 9 29 20 40 70 8 35 20 62 29 65 23 9 28 21 36 92 7 65 27 120 43 120 13 0
28 53 37 135 10 84 10 882 0 975 -9 91 -26 141 -53 166 -17 16 -23 32 -23 64
0 54 -18 107 -47 140 -13 14 -23 37 -23 52 0 17 -15 44 -40 73 -27 31 -40 56
-40 75 0 19 -7 33 -20 40 -11 6 -31 35 -45 65 -14 30 -35 57 -45 60 -12 4 -20
15 -20 29 0 28 -18 46 -47 46 -19 0 -23 5 -23 28 0 33 -16 52 -43 52 -12 0
-23 11 -30 29 -6 16 -21 34 -34 40 -13 6 -23 18 -23 27 0 21 -29 43 -56 44
-15 0 -23 8 -27 28 -4 20 -14 30 -39 37 -19 6 -37 20 -43 33 -5 13 -21 26 -35
29 -16 3 -31 16 -38 32 -12 26 -49 45 -107 53 -11 2 -21 12 -24 23 -5 27 -31
44 -68 45 -38 0 -63 9 -63 22 0 18 -28 38 -54 38 -50 0 -51 9 -56 525 -5 458
-6 482 -25 512 l-20 33 -171 0 -172 0 -11 -44 c-7 -29 -11 -177 -11 -421 0
-329 -2 -378 -16 -392 -13 -13 -30 -15 -112 -8 -53 5 -188 9 -300 10 -166 1
-205 4 -213 16 -5 8 -9 180 -9 390 0 375 0 376 -23 410 l-23 34 -172 3 -172 2
-10 -25 c-6 -16 -10 -201 -10 -465 0 -294 -4 -447 -11 -463 -11 -25 -58 -47
-100 -47 -13 0 -44 -16 -68 -35 -26 -21 -55 -35 -72 -35 -15 0 -29 -4 -31 -8
-8 -19 -69 -52 -98 -52 -24 0 -35 -7 -48 -30 -16 -28 -60 -50 -100 -50 -7 0
-20 -16 -28 -36 -13 -31 -18 -35 -47 -32 -26 2 -33 8 -38 33 -4 17 -7 294 -8
618 -1 573 -1 587 -21 607 -19 19 -33 20 -200 20 -99 0 -181 -1 -182 -2z
m2014 -1288 c20 -6 39 -17 42 -25 3 -9 20 -15 43 -16 83 -2 170 -23 189 -47
13 -16 34 -25 64 -29 30 -4 57 -17 83 -38 21 -18 51 -35 67 -38 16 -4 38 -16
49 -28 20 -22 81 -49 111 -49 9 0 22 -15 28 -34 10 -26 19 -36 40 -38 20 -2
28 -9 31 -28 4 -29 17 -40 49 -40 14 0 22 -6 22 -18 0 -24 19 -42 46 -42 22 0
34 -17 34 -48 0 -10 10 -22 23 -27 12 -6 30 -25 39 -44 9 -18 27 -39 39 -45
14 -7 29 -30 39 -60 10 -31 24 -53 38 -59 14 -7 26 -25 32 -51 15 -60 28 -86
45 -92 9 -4 15 -19 15 -36 0 -36 20 -75 54 -107 22 -21 26 -33 26 -82 0 -63
21 -123 51 -148 19 -15 20 -30 20 -367 0 -355 -4 -404 -37 -404 -17 0 -34 -63
-34 -128 0 -46 -4 -58 -30 -83 -19 -19 -34 -49 -41 -83 -9 -36 -19 -56 -33
-62 -13 -5 -23 -23 -27 -44 -14 -72 -25 -94 -49 -100 -16 -4 -27 -16 -32 -37
-6 -22 -17 -34 -38 -42 -20 -6 -30 -17 -30 -30 0 -11 -16 -36 -35 -56 -19 -21
-37 -47 -41 -59 -9 -30 -34 -56 -54 -56 -9 0 -22 -11 -29 -23 -7 -13 -36 -37
-64 -53 -34 -20 -53 -37 -55 -52 -2 -14 -10 -22 -22 -22 -27 0 -50 -11 -50
-23 0 -21 -34 -47 -60 -47 -18 0 -31 -8 -39 -24 -15 -27 -50 -46 -88 -46 -14
0 -43 -14 -64 -31 -42 -33 -86 -49 -137 -49 -18 0 -54 -12 -79 -27 -43 -25
-56 -27 -247 -36 -245 -12 -548 2 -599 29 -59 31 -67 34 -84 34 -9 0 -30 4
-47 10 -17 5 -52 12 -78 15 -33 4 -49 11 -53 24 -5 16 -21 23 -115 49 -14 4
-26 16 -28 28 -2 14 -16 23 -50 33 -26 7 -53 15 -60 17 -8 2 -16 13 -19 23 -3
12 -17 23 -35 26 -22 5 -34 16 -44 41 -11 26 -20 34 -40 34 -17 0 -30 9 -42
30 -9 17 -24 32 -33 35 -27 9 -109 96 -109 116 0 11 -7 19 -16 19 -21 0 -42
22 -46 51 -2 14 -14 29 -30 37 -16 7 -31 24 -34 37 -3 13 -15 27 -25 30 -24 8
-36 31 -50 93 -8 39 -15 51 -33 56 -23 6 -46 58 -46 102 0 11 -9 27 -19 36
-11 9 -22 32 -25 50 -18 124 -27 161 -42 173 -37 26 -44 88 -44 385 0 293 6
352 39 370 22 11 41 80 41 150 0 43 4 55 24 71 16 13 26 34 31 65 9 63 14 74
39 83 15 6 25 24 36 66 10 37 22 62 35 69 27 15 35 27 35 54 0 12 5 22 10 22
6 0 10 8 10 18 0 9 13 24 29 33 18 10 30 28 34 48 5 21 12 31 25 31 25 0 42
19 42 47 0 17 6 23 21 23 23 0 42 16 52 43 4 10 20 23 36 28 18 6 32 20 35 35
4 13 13 24 22 24 8 0 32 18 53 39 24 25 55 44 81 51 27 7 44 18 47 30 4 13 20
22 55 29 62 14 85 26 92 49 4 13 24 22 68 31 67 14 138 45 138 61 0 6 11 10
25 10 64 0 215 29 280 54 31 12 87 15 255 16 118 0 231 -5 252 -10z"/>
</g>
</svg>
